<?xml version="1.0" encoding="utf-8"?>
<!-- Generator: Adobe Illustrator 22.0.1, SVG Export Plug-In . SVG Version: 6.00 Build 0)  -->
<svg version="1.1" id="Layer_1" xmlns="http://www.w3.org/2000/svg" xmlns:xlink="http://www.w3.org/1999/xlink" x="0px" y="0px"
	 viewBox="0 0 800 464.3" style="enable-background:new 0 0 800 464.3;" xml:space="preserve">
<style type="text/css">
	.st0{fill:#404040;}
	.st1{fill:#FFFFFF;}
	.st2{fill:#B18BE8;}
	.st3{fill:#4ED1A1;}
	.st4{fill:#FFFFFF;stroke:#404040;stroke-width:4;stroke-linecap:round;stroke-linejoin:round;stroke-miterlimit:10;}
	.st5{fill:#59AFE1;stroke:#404040;stroke-width:4;stroke-linejoin:round;stroke-miterlimit:10;}
	.st6{fill:#B3E3FF;stroke:#404040;stroke-width:4;stroke-linejoin:round;stroke-miterlimit:10;}
	.st7{fill:none;stroke:#404040;stroke-width:4;stroke-linecap:round;stroke-linejoin:round;stroke-miterlimit:10;}
	.st8{fill:#B18BE8;stroke:#404040;stroke-width:4;stroke-linecap:round;stroke-linejoin:round;stroke-miterlimit:10;}
	.st9{fill:#4ED1A1;stroke:#404040;stroke-width:4;stroke-miterlimit:10;}
</style>
<g id="git_x5F_pull_x5F_2_3_">
	<path class="st7" d="M141.5,232.2c0,22.6-18.4,41-41,41h551.6 M141.5,232.2c0-22.6,18.4-41,41-41h220"/>
	
		<ellipse transform="matrix(0.7071 -0.7071 0.7071 0.7071 -112.5218 274.8058)" class="st4" cx="275.5" cy="273.2" rx="21" ry="21"/>
	<circle class="st4" cx="192.2" cy="273.2" r="21"/>
	<circle class="st4" cx="109" cy="273.2" r="21"/>
	<path class="st9" d="M300.5,55.4h200.2v50H300.5V55.4z"/>
	<path class="st7" d="M401.1,148.5V125 M412,139.8l-10.9,10.9l-10.9-10.9"/>
	<g>
		<path class="st0" d="M330.3,77.6c0-1.8-1.3-3.2-3.3-3.2h-4v10.7h1.5v-4.4h1.6l2.4,4.4h1.7l-2.5-4.5
			C329.3,80.4,330.3,79.2,330.3,77.6z M326.7,79.4h-2.3v-3.7h2.3c1.2,0,2,0.7,2,1.9C328.7,78.7,327.9,79.4,326.7,79.4z"/>
		<path class="st0" d="M335.3,77.7c-1.8,0-3.5,1.6-3.5,3.8c0,2.5,1.7,3.9,3.6,3.9c1.7,0,2.8-1,3.3-2.3l-1.2-0.4
			c-0.3,0.8-0.9,1.5-2,1.5c-1.2,0-2.2-0.9-2.2-2.2h5.5c0-0.1,0-0.3,0-0.5C338.8,79.2,337.5,77.7,335.3,77.7z M333.3,80.8
			c0.1-0.9,0.8-1.9,2-1.9c1.3,0,2,0.8,2,1.9H333.3z"/>
		<path class="st0" d="M349.3,77.7c-0.9,0-1.9,0.3-2.4,1.4c-0.4-0.9-1.3-1.4-2.2-1.4c-0.8,0-1.7,0.4-2.2,1.2v-1h-1.4v7.3h1.4v-4.4
			c0-1.1,0.7-1.8,1.7-1.8c1.1,0,1.5,0.7,1.5,1.7v4.6h1.4v-4.4c0-1,0.7-1.8,1.7-1.8c1.1,0,1.5,0.7,1.5,1.7v4.6h1.4v-4.7
			C351.8,78.5,350.5,77.7,349.3,77.7z"/>
		<path class="st0" d="M357.7,77.7c-2.2,0-3.7,1.6-3.7,3.8c0,2.2,1.5,3.9,3.7,3.9s3.7-1.6,3.7-3.9C361.4,79.3,359.9,77.7,357.7,77.7
			z M357.7,84.1c-1.2,0-2.3-0.9-2.3-2.6c0-1.7,1.1-2.6,2.3-2.6s2.3,0.9,2.3,2.6C359.9,83.2,358.9,84.1,357.7,84.1z"/>
		<path class="st0" d="M365.6,75.6h-1.3v1.2c0,0.6-0.3,1.1-1.1,1.1h-0.4v1.3h1.4v4c0,1.3,0.8,2.1,2,2.1c0.5,0,0.8-0.1,1-0.1v-1.2
			c-0.1,0-0.4,0.1-0.6,0.1c-0.7,0-1-0.3-1-1v-3.8h1.6v-1.3h-1.6V75.6z"/>
		<path class="st0" d="M372.4,77.7c-1.8,0-3.5,1.6-3.5,3.8c0,2.5,1.7,3.9,3.6,3.9c1.7,0,2.8-1,3.3-2.3l-1.2-0.4
			c-0.3,0.8-0.9,1.5-2,1.5c-1.2,0-2.2-0.9-2.2-2.2h5.5c0-0.1,0-0.3,0-0.5C375.9,79.2,374.6,77.7,372.4,77.7z M370.4,80.8
			c0.1-0.9,0.8-1.9,2-1.9c1.3,0,2,0.8,2,1.9H370.4z"/>
		<path class="st0" d="M385.6,77.7c-2.2,0-3.7,1.6-3.7,3.8c0,2.2,1.5,3.9,3.7,3.9s3.7-1.6,3.7-3.9C389.3,79.3,387.8,77.7,385.6,77.7
			z M385.6,84.1c-1.2,0-2.3-0.9-2.3-2.6c0-1.7,1.1-2.6,2.3-2.6s2.3,0.9,2.3,2.6C387.9,83.2,386.8,84.1,385.6,84.1z"/>
		<path class="st0" d="M393.1,79.2v-1.3h-1.4v7.3h1.4v-3.6c0-1.6,0.8-2.2,2-2.2c0.2,0,0.4,0,0.6,0v-1.5c-0.1,0-0.3,0-0.5,0
			C394.5,77.8,393.6,78,393.1,79.2z"/>
		<rect x="397.8" y="77.9" class="st0" width="1.4" height="7.3"/>
		<path class="st0" d="M398.5,74.1c-0.6,0-1,0.5-1,1c0,0.6,0.5,1,1,1c0.6,0,1-0.5,1-1C399.5,74.6,399,74.1,398.5,74.1z"/>
		<path class="st0" d="M407.2,78.9c-0.4-0.7-1.1-1.1-2.2-1.1c-2,0-3.3,1.6-3.3,3.5c0,2.1,1.4,3.5,3.3,3.5c1.1,0,1.9-0.5,2.2-1.2v1
			c0,1.6-0.7,2.4-2.2,2.4c-1.1,0-1.9-0.8-2-1.8l-1.4,0.3c0.2,1.6,1.5,2.7,3.3,2.7c2.7,0,3.6-1.8,3.6-3.6v-6.7h-1.4V78.9z
			 M405.2,83.6c-1.3,0-2.1-0.9-2.1-2.3c0-1.4,0.8-2.3,2.1-2.3c1.2,0,2.1,0.9,2.1,2.3S406.4,83.6,405.2,83.6z"/>
		<rect x="411.4" y="77.9" class="st0" width="1.4" height="7.3"/>
		<path class="st0" d="M412.1,74.1c-0.6,0-1,0.5-1,1c0,0.6,0.5,1,1,1c0.6,0,1-0.5,1-1C413.1,74.6,412.7,74.1,412.1,74.1z"/>
		<path class="st0" d="M419.4,77.7c-0.8,0-1.7,0.3-2.2,1.3v-1h-1.4v7.3h1.4V81c0-1.1,0.6-2,1.7-2c1.3,0,1.7,0.8,1.7,1.8v4.4h1.4
			v-4.6C422,78.9,421.1,77.7,419.4,77.7z"/>
		<polygon class="st0" points="423.6,85.1 424.9,85.1 430.1,74.5 428.7,74.5 		"/>
		<path class="st0" d="M439.1,77.7c-0.9,0-1.9,0.3-2.4,1.4c-0.4-0.9-1.3-1.4-2.2-1.4c-0.8,0-1.7,0.4-2.2,1.2v-1h-1.4v7.3h1.4v-4.4
			c0-1.1,0.7-1.8,1.7-1.8c1.1,0,1.5,0.7,1.5,1.7v4.6h1.4v-4.4c0-1,0.7-1.8,1.7-1.8c1.1,0,1.5,0.7,1.5,1.7v4.6h1.4v-4.7
			C441.6,78.5,440.4,77.7,439.1,77.7z"/>
		<path class="st0" d="M450.1,80.3c0-1.4-0.8-2.7-3-2.7c-1.6,0-2.8,1-3,2.4l1.4,0.3c0.1-0.8,0.6-1.5,1.6-1.5c1.1,0,1.6,0.6,1.6,1.3
			c0,0.3-0.1,0.5-0.6,0.5l-2,0.3c-1.3,0.2-2.2,0.9-2.2,2.2c0,1.1,0.9,2.2,2.4,2.2c1.3,0,2-0.7,2.3-1.2c0,0.5,0,0.8,0.1,1h1.4
			c0-0.2-0.1-0.6-0.1-1.2V80.3z M448.7,82c0,1.6-0.9,2.1-2.1,2.1c-0.7,0-1.2-0.5-1.2-1.1c0-0.6,0.5-1,1.1-1.1l2.2-0.3V82z"/>
		<path class="st0" d="M455.8,81l-1.2-0.3c-0.6-0.1-0.8-0.4-0.8-0.9c0-0.5,0.5-1,1.2-1c1.1,0,1.4,0.8,1.5,1.2l1.3-0.5
			c-0.2-0.6-0.8-1.9-2.8-1.9c-1.4,0-2.6,1.1-2.6,2.3c0,1,0.7,1.8,1.8,2l1.2,0.3c0.6,0.1,0.9,0.5,0.9,0.9c0,0.5-0.4,1-1.2,1
			c-1,0-1.6-0.6-1.7-1.4l-1.3,0.5c0.1,0.8,1,2.1,3,2.1c1.8,0,2.7-1.2,2.7-2.2C457.8,82.1,457.1,81.3,455.8,81z"/>
		<path class="st0" d="M462.1,75.6h-1.3v1.2c0,0.6-0.3,1.1-1.1,1.1h-0.4v1.3h1.4v4c0,1.3,0.8,2.1,2,2.1c0.5,0,0.8-0.1,1-0.1v-1.2
			c-0.1,0-0.4,0.1-0.6,0.1c-0.7,0-1-0.3-1-1v-3.8h1.6v-1.3h-1.6V75.6z"/>
		<path class="st0" d="M468.9,77.7c-1.8,0-3.5,1.6-3.5,3.8c0,2.5,1.7,3.9,3.6,3.9c1.7,0,2.8-1,3.3-2.3l-1.2-0.4
			c-0.3,0.8-0.9,1.5-2,1.5c-1.2,0-2.2-0.9-2.2-2.2h5.5c0-0.1,0-0.3,0-0.5C472.4,79.2,471.1,77.7,468.9,77.7z M466.9,80.8
			c0.1-0.9,0.8-1.9,2-1.9c1.3,0,2,0.8,2,1.9H466.9z"/>
		<path class="st0" d="M478.3,77.8c-0.7,0-1.6,0.3-2.2,1.4v-1.3h-1.4v7.3h1.4v-3.6c0-1.6,0.8-2.2,2-2.2c0.2,0,0.4,0,0.6,0v-1.5
			C478.7,77.8,478.5,77.8,478.3,77.8z"/>
	</g>
	<ellipse transform="matrix(0.7071 -0.7071 0.7071 0.7071 -88.1437 333.6597)" class="st4" cx="358.7" cy="273.2" rx="21" ry="21"/>
</g>
<circle class="st4" cx="275.5" cy="191.2" r="21"/>
<circle class="st4" cx="192.2" cy="191.2" r="21"/>
<circle class="st4" cx="487.5" cy="273.2" r="21"/>
<path class="st6" d="M585.8,359H722v50H585.8L585.8,359z"/>
<g>
	<path class="st0" d="M608.8,390v-10.7h1.5v9.3h5.1v1.4H608.8z"/>
	<path class="st0" d="M624.2,386.4c0,2.2-1.5,3.9-3.7,3.9s-3.7-1.6-3.7-3.9c0-2.2,1.5-3.8,3.7-3.8S624.2,384.2,624.2,386.4z
		 M622.7,386.4c0-1.7-1.1-2.6-2.3-2.6s-2.3,0.9-2.3,2.6c0,1.7,1.1,2.6,2.3,2.6S622.7,388.1,622.7,386.4z"/>
	<path class="st0" d="M627.4,386.4c0,1.7,1,2.5,2.2,2.5c1.4,0,1.9-0.9,2-1.5l1.3,0.5c-0.3,1-1.4,2.3-3.3,2.3c-2.1,0-3.7-1.7-3.7-3.9
		c0-2.3,1.6-3.8,3.6-3.8c1.9,0,2.9,1.2,3.2,2.3l-1.3,0.5c-0.2-0.7-0.7-1.5-1.9-1.5C628.4,383.9,627.4,384.7,627.4,386.4z"/>
	<path class="st0" d="M636.7,385.9l2-0.3c0.4-0.1,0.6-0.3,0.6-0.5c0-0.7-0.5-1.3-1.6-1.3c-1,0-1.6,0.6-1.6,1.5l-1.4-0.3
		c0.2-1.4,1.4-2.4,3-2.4c2.2,0,3,1.2,3,2.7v3.6c0,0.6,0.1,1,0.1,1.2h-1.4c0-0.2-0.1-0.5-0.1-1c-0.3,0.5-1,1.2-2.3,1.2
		c-1.5,0-2.4-1-2.4-2.2C634.5,386.8,635.5,386.1,636.7,385.9z M639.2,386.9v-0.3l-2.2,0.3c-0.6,0.1-1.1,0.4-1.1,1.1
		c0,0.5,0.5,1.1,1.2,1.1C638.3,389.1,639.2,388.5,639.2,386.9z"/>
	<path class="st0" d="M643.4,390v-10.9h1.4V390H643.4z"/>
	<path class="st0" d="M652.1,390v-7.3h1.4v1c0.5-0.8,1.4-1.2,2.2-1.2c0.9,0,1.8,0.4,2.2,1.4c0.6-1,1.5-1.4,2.4-1.4
		c1.3,0,2.5,0.9,2.5,2.8v4.7h-1.4v-4.6c0-0.9-0.5-1.7-1.5-1.7c-1,0-1.7,0.8-1.7,1.8v4.4h-1.4v-4.6c0-0.9-0.5-1.7-1.5-1.7
		c-1,0-1.7,0.8-1.7,1.8v4.4H652.1z"/>
	<path class="st0" d="M667.3,385.9l2-0.3c0.4-0.1,0.6-0.3,0.6-0.5c0-0.7-0.5-1.3-1.6-1.3c-1,0-1.6,0.6-1.6,1.5l-1.4-0.3
		c0.2-1.4,1.4-2.4,3-2.4c2.2,0,3,1.2,3,2.7v3.6c0,0.6,0.1,1,0.1,1.2h-1.4c0-0.2-0.1-0.5-0.1-1c-0.3,0.5-1,1.2-2.3,1.2
		c-1.5,0-2.4-1-2.4-2.2C665.1,386.8,666.1,386.1,667.3,385.9z M669.8,386.9v-0.3l-2.2,0.3c-0.6,0.1-1.1,0.4-1.1,1.1
		c0,0.5,0.5,1.1,1.2,1.1C668.9,389.1,669.8,388.5,669.8,386.9z"/>
	<path class="st0" d="M674.6,387.7c0.1,0.8,0.7,1.4,1.7,1.4c0.8,0,1.2-0.5,1.2-1c0-0.5-0.3-0.8-0.9-0.9l-1.2-0.3
		c-1.1-0.2-1.8-1-1.8-2c0-1.2,1.2-2.3,2.6-2.3c2,0,2.6,1.3,2.8,1.9l-1.3,0.5c-0.1-0.4-0.4-1.2-1.5-1.2c-0.7,0-1.2,0.5-1.2,1
		c0,0.4,0.3,0.8,0.8,0.9l1.2,0.3c1.3,0.3,2,1.1,2,2.2c0,1-0.9,2.2-2.7,2.2c-2,0-2.8-1.3-3-2.1L674.6,387.7z"/>
	<path class="st0" d="M683.2,382.8h1.6v1.3h-1.6v3.8c0,0.7,0.3,1,1,1c0.2,0,0.4,0,0.6-0.1v1.2c-0.1,0-0.5,0.1-1,0.1
		c-1.2,0-2-0.8-2-2.1v-4h-1.4v-1.3h0.4c0.8,0,1.1-0.5,1.1-1.1v-1.2h1.3V382.8z"/>
	<path class="st0" d="M693.5,388c-0.4,1.3-1.6,2.3-3.3,2.3c-1.9,0-3.6-1.4-3.6-3.9c0-2.3,1.6-3.8,3.5-3.8c2.2,0,3.5,1.5,3.5,3.8
		c0,0.2,0,0.4,0,0.5H688c0,1.3,1,2.2,2.2,2.2c1.2,0,1.8-0.6,2-1.5L693.5,388z M692.1,385.7c0-1-0.7-1.9-2-1.9c-1.2,0-1.9,0.9-2,1.9
		H692.1z"/>
	<path class="st0" d="M699.9,384.2c-0.2,0-0.4,0-0.6,0c-1.2,0-2,0.6-2,2.2v3.6h-1.4v-7.3h1.4v1.3c0.5-1.1,1.4-1.4,2.2-1.4
		c0.2,0,0.4,0,0.5,0V384.2z"/>
</g>
<line class="st7" x1="653.9" y1="315.5" x2="653.9" y2="339"/>
<polyline class="st7" points="643,324.2 653.9,313.4 664.7,324.2 "/>
<ellipse transform="matrix(0.7071 -0.7071 0.7071 0.7071 -1.667 542.4329)" class="st5" cx="653.9" cy="273.2" rx="21" ry="21"/>
<circle class="st4" cx="570.6" cy="273.2" r="21"/>
<circle class="st9" cx="401.1" cy="191.2" r="21"/>
<g>
	<path class="st0" d="M194.3,193.1h-4.7l-1.1,3h-1.6l4.3-10.7h1.7l4.3,10.7h-1.6L194.3,193.1z M190.1,191.7h3.7l-1.9-4.8
		L190.1,191.7z"/>
</g>
<g>
	<path class="st0" d="M275.5,185.4c2,0,3.2,1.2,3.2,2.9c0,1.1-0.7,2-1.6,2.3c1.2,0.3,1.9,1.4,1.9,2.6c0,1.7-1.3,2.9-3.3,2.9H272
		v-10.7H275.5z M275.3,190c1.2,0,1.9-0.7,1.9-1.7c0-1-0.7-1.7-2-1.7h-1.8v3.4H275.3z M275.5,194.8c1.2,0,2-0.7,2-1.7
		c0-1-0.6-1.7-1.9-1.7h-2.1v3.5H275.5z"/>
</g>
<g>
	<path class="st0" d="M396.1,190.7c0-3.6,2.7-5.6,5.3-5.6c2.4,0,4.2,1.3,4.7,3.4l-1.4,0.5c-0.4-1.6-1.6-2.5-3.3-2.5
		c-1.9,0-3.8,1.4-3.8,4.2s1.9,4.2,3.8,4.2c1.8,0,3-1.1,3.4-2.6l1.3,0.5c-0.6,2-2.3,3.4-4.7,3.4C398.6,196.3,396.1,194.3,396.1,190.7
		z"/>
</g>
<g>
	<path class="st0" d="M104.7,278.1v-10.7h3.7c2.7,0,5.1,1.9,5.1,5.4c0,3.5-2.4,5.3-5.1,5.3H104.7z M108.3,276.7c2,0,3.6-1.3,3.6-4
		c0-2.7-1.6-4.1-3.6-4.1h-2.2v8.1H108.3z"/>
</g>
<g>
	<path class="st0" d="M189.1,278.1v-10.7h6.5v1.4h-5v3.3h4.6v1.4h-4.6v3.3h5v1.4H189.1z"/>
</g>
<g>
	<path class="st0" d="M272.7,278.1v-10.7h6.5v1.4h-5v3.4h4.6v1.4h-4.6v4.5H272.7z"/>
</g>
<g>
	<path class="st0" d="M362.3,278.1l-0.1-1.5c-0.5,0.8-1.6,1.7-3.4,1.7c-2.7,0-5.2-2-5.2-5.6s2.7-5.6,5.3-5.6c2.3,0,4.1,1.3,4.7,3.2
		l-1.3,0.6c-0.5-1.5-1.7-2.4-3.4-2.4c-1.9,0-3.8,1.4-3.8,4.2s1.8,4.2,3.7,4.2c2.4,0,3.2-1.7,3.3-2.8h-3.7v-1.3h5.1v5.2H362.3z"/>
</g>
<g>
	<path class="st0" d="M489.5,275.1h-4.7l-1.1,3h-1.6l4.3-10.7h1.7l4.3,10.7h-1.6L489.5,275.1z M485.3,273.7h3.7l-1.9-4.8
		L485.3,273.7z"/>
</g>
<g>
	<path class="st0" d="M570.9,267.4c2,0,3.2,1.2,3.2,2.9c0,1.1-0.7,2-1.6,2.3c1.2,0.3,1.9,1.4,1.9,2.6c0,1.7-1.3,2.9-3.3,2.9h-3.7
		v-10.7H570.9z M570.8,272c1.2,0,1.9-0.7,1.9-1.7c0-1-0.7-1.7-2-1.7h-1.8v3.4H570.8z M571,276.8c1.2,0,2-0.7,2-1.7
		c0-1-0.6-1.7-1.9-1.7h-2.1v3.5H571z"/>
</g>
<g>
	<path class="st0" d="M649,272.7c0-3.6,2.7-5.6,5.3-5.6c2.4,0,4.2,1.3,4.7,3.4l-1.4,0.5c-0.4-1.6-1.6-2.5-3.3-2.5
		c-1.9,0-3.8,1.4-3.8,4.2s1.9,4.2,3.8,4.2c1.8,0,3-1.1,3.4-2.6l1.3,0.5c-0.6,2-2.3,3.4-4.7,3.4C651.5,278.3,649,276.3,649,272.7z"/>
</g>
</svg>
