<?xml version="1.0" encoding="utf-8"?>
<!-- Generator: Adobe Illustrator 22.0.1, SVG Export Plug-In . SVG Version: 6.00 Build 0)  -->
<svg version="1.1" id="Layer_1" xmlns="http://www.w3.org/2000/svg" xmlns:xlink="http://www.w3.org/1999/xlink" x="0px" y="0px"
	 viewBox="0 0 800 461.5" style="enable-background:new 0 0 800 461.5;" xml:space="preserve">
<style type="text/css">
	.st0{fill:#404040;}
	.st1{fill:#FFFFFF;}
	.st2{fill:#B18BE8;}
	.st3{fill:#4ED1A1;}
	.st4{fill:#FFFFFF;stroke:#404040;stroke-width:4;stroke-linecap:round;stroke-linejoin:round;stroke-miterlimit:10;}
	.st5{fill:#59AFE1;stroke:#404040;stroke-width:4;stroke-linejoin:round;stroke-miterlimit:10;}
	.st6{fill:#B3E3FF;stroke:#404040;stroke-width:4;stroke-linejoin:round;stroke-miterlimit:10;}
	.st7{fill:none;stroke:#404040;stroke-width:4;stroke-linecap:round;stroke-linejoin:round;stroke-miterlimit:10;}
	.st8{fill:#B18BE8;stroke:#404040;stroke-width:4;stroke-linecap:round;stroke-linejoin:round;stroke-miterlimit:10;}
	.st9{fill:#4ED1A1;stroke:#404040;stroke-width:4;stroke-miterlimit:10;}
</style>
<g id="git_x5F_pull_x5F_2_1_">
	<g>
		<path class="st0" d="M517.9,272.9H259.6c-1.1,0-2-0.9-2-2s0.9-2,2-2c21.5,0,39-17.5,39-39c0-23.7,19.3-43,43-43h220
			c1.1,0,2,0.9,2,2s-0.9,2-2,2h-220c-21.5,0-39,17.5-39,39c0,17.2-10.2,32.2-24.9,39h240.2c1.1,0,2,0.9,2,2S519,272.9,517.9,272.9z"
			/>
	</g>
	<g>
		<ellipse class="st1" cx="434.6" cy="270.9" rx="21" ry="21"/>
		<path class="st0" d="M434.7,293.9c-6.1,0-11.9-2.4-16.3-6.7c-4.9-4.9-7.3-11.7-6.6-18.6c1.1-10.8,9.7-19.5,20.5-20.5l0,0
			c6.9-0.7,13.7,1.7,18.6,6.6c4.9,4.9,7.3,11.7,6.6,18.6c-1.1,10.8-9.7,19.5-20.5,20.5C436.2,293.8,435.4,293.9,434.7,293.9z
			 M432.7,252c-8.9,0.9-16.1,8-17,17c-0.6,5.7,1.4,11.3,5.5,15.4c4,4,9.6,6,15.4,5.5c8.9-0.9,16.1-8,17-17
			c0.6-5.7-1.4-11.3-5.5-15.4S438.4,251.4,432.7,252L432.7,252z"/>
	</g>
	<g>
		<circle class="st1" cx="351.3" cy="270.9" r="21"/>
		<path class="st0" d="M351.3,293.9c-12.7,0-23-10.3-23-23s10.3-23,23-23s23,10.3,23,23S364,293.9,351.3,293.9z M351.3,251.9
			c-10.5,0-19,8.5-19,19s8.5,19,19,19s19-8.5,19-19S361.8,251.9,351.3,251.9z"/>
	</g>
	<g>
		<circle class="st2" cx="268.1" cy="270.9" r="21"/>
		<path class="st0" d="M268.1,293.9c-12.7,0-23-10.3-23-23s10.3-23,23-23c12.7,0,23,10.3,23,23S280.8,293.9,268.1,293.9z
			 M268.1,251.9c-10.5,0-19,8.5-19,19s8.5,19,19,19s19-8.5,19-19S278.6,251.9,268.1,251.9z"/>
	</g>
	<g>
		<path class="st3" d="M449.7,53.1h220.2v50H449.7V53.1z"/>
		<path class="st0" d="M671.9,105.1H447.7v-54h224.2V105.1z M451.7,101.1h216.2v-46H451.7V101.1z"/>
	</g>
	<g>
		<path class="st0" d="M560.2,150.4L560.2,150.4c-0.5,0-1-0.2-1.4-0.6l-10.9-10.9c-0.8-0.8-0.8-2,0-2.8s2-0.8,2.8,0l7.5,7.5v-20.9
			c0-1.1,0.9-2,2-2s2,0.9,2,2v20.9l7.5-7.5c0.8-0.8,2-0.8,2.8,0s0.8,2,0,2.8l-10.9,10.9C561.3,150.2,560.8,150.4,560.2,150.4z"/>
	</g>
	<g>
		<path class="st0" d="M483.1,82.8v-8.3l-3.6,8.3h-1.4l-3.6-8.3v8.3H473V72.1h2l3.8,8.7l3.8-8.7h2v10.7
			C484.6,82.8,483.1,82.8,483.1,82.8z"/>
		<path class="st0" d="M489.3,78.7l2-0.3c0.4-0.1,0.6-0.3,0.6-0.5c0-0.7-0.5-1.3-1.6-1.3c-1,0-1.6,0.6-1.6,1.5l-1.4-0.3
			c0.2-1.4,1.4-2.4,3-2.4c2.2,0,3,1.2,3,2.7v3.6c0,0.6,0.1,1,0.1,1.2H492c0-0.2-0.1-0.5-0.1-1c-0.3,0.5-1,1.2-2.3,1.2
			c-1.5,0-2.4-1-2.4-2.2C487.1,79.6,488.1,78.8,489.3,78.7z M491.8,79.7v-0.3l-2.2,0.3c-0.6,0.1-1.1,0.4-1.1,1.1
			c0,0.5,0.5,1.1,1.2,1.1C490.9,81.8,491.8,81.3,491.8,79.7z"/>
		<path class="st0" d="M496.6,80.5c0.1,0.8,0.7,1.4,1.7,1.4c0.8,0,1.2-0.5,1.2-1s-0.3-0.8-0.9-0.9l-1.2-0.3c-1.1-0.2-1.8-1-1.8-2
			c0-1.2,1.2-2.3,2.6-2.3c2,0,2.6,1.3,2.8,1.9l-1.3,0.5c-0.1-0.4-0.4-1.2-1.5-1.2c-0.7,0-1.2,0.5-1.2,1c0,0.4,0.3,0.8,0.8,0.9
			l1.2,0.3c1.3,0.3,2,1.1,2,2.2c0,1-0.9,2.2-2.7,2.2c-2,0-2.8-1.3-3-2.1L496.6,80.5z"/>
		<path class="st0" d="M505.3,75.5h1.6v1.3h-1.6v3.8c0,0.7,0.3,1,1,1c0.2,0,0.4,0,0.6-0.1v1.2c-0.1,0-0.5,0.1-1,0.1
			c-1.2,0-2-0.8-2-2.1v-4h-1.4v-1.3h0.4c0.8,0,1.1-0.5,1.1-1.1v-1.2h1.3V75.5z"/>
		<path class="st0" d="M515.5,80.7c-0.4,1.3-1.6,2.3-3.3,2.3c-1.9,0-3.6-1.4-3.6-3.9c0-2.3,1.6-3.8,3.5-3.8c2.2,0,3.5,1.5,3.5,3.8
			c0,0.2,0,0.4,0,0.5h-5.5c0,1.3,1,2.2,2.2,2.2s1.8-0.6,2-1.5L515.5,80.7z M514.1,78.4c0-1-0.7-1.9-2-1.9c-1.2,0-1.9,0.9-2,1.9
			H514.1z"/>
		<path class="st0" d="M521.9,77c-0.2,0-0.4,0-0.6,0c-1.2,0-2,0.6-2,2.2v3.6h-1.4v-7.3h1.4v1.3c0.5-1.1,1.4-1.4,2.2-1.4
			c0.2,0,0.4,0,0.5,0V77H521.9z"/>
		<path class="st0" d="M535.1,79.2c0,2.2-1.5,3.9-3.7,3.9s-3.7-1.6-3.7-3.9c0-2.2,1.5-3.8,3.7-3.8S535.1,77,535.1,79.2z M533.7,79.2
			c0-1.7-1.1-2.6-2.3-2.6s-2.3,0.9-2.3,2.6s1.1,2.6,2.3,2.6S533.7,80.9,533.7,79.2z"/>
		<path class="st0" d="M538.9,82.8h-1.4v-7.3h1.4v1c0.5-0.9,1.4-1.3,2.2-1.3c1.7,0,2.6,1.3,2.6,2.9v4.6h-1.4v-4.4
			c0-1-0.4-1.8-1.7-1.8c-1.1,0-1.7,0.9-1.7,2L538.9,82.8L538.9,82.8z"/>
		<path class="st0" d="M554.8,77c-0.2,0-0.4,0-0.6,0c-1.2,0-2,0.6-2,2.2v3.6h-1.4v-7.3h1.4v1.3c0.5-1.1,1.4-1.4,2.2-1.4
			c0.2,0,0.4,0,0.5,0V77H554.8z"/>
		<path class="st0" d="M563.1,80.7c-0.4,1.3-1.6,2.3-3.3,2.3c-1.9,0-3.6-1.4-3.6-3.9c0-2.3,1.6-3.8,3.5-3.8c2.2,0,3.5,1.5,3.5,3.8
			c0,0.2,0,0.4,0,0.5h-5.5c0,1.3,1,2.2,2.2,2.2s1.8-0.6,2-1.5L563.1,80.7z M561.7,78.4c0-1-0.7-1.9-2-1.9c-1.2,0-1.9,0.9-2,1.9
			H561.7z"/>
		<path class="st0" d="M565.5,82.8v-7.3h1.4v1c0.5-0.8,1.4-1.2,2.2-1.2c0.9,0,1.8,0.4,2.2,1.4c0.6-1,1.5-1.4,2.4-1.4
			c1.3,0,2.5,0.9,2.5,2.8v4.7h-1.4v-4.6c0-0.9-0.5-1.7-1.5-1.7s-1.7,0.8-1.7,1.8v4.4h-1.4v-4.6c0-0.9-0.5-1.7-1.5-1.7
			s-1.7,0.8-1.7,1.8v4.4h-1.5V82.8z"/>
		<path class="st0" d="M585.8,79.2c0,2.2-1.5,3.9-3.7,3.9s-3.7-1.6-3.7-3.9c0-2.2,1.5-3.8,3.7-3.8S585.8,77,585.8,79.2z M584.3,79.2
			c0-1.7-1.1-2.6-2.3-2.6s-2.3,0.9-2.3,2.6s1.1,2.6,2.3,2.6S584.3,80.9,584.3,79.2z"/>
		<path class="st0" d="M590,75.5h1.6v1.3H590v3.8c0,0.7,0.3,1,1,1c0.2,0,0.4,0,0.6-0.1v1.2c-0.1,0-0.5,0.1-1,0.1c-1.2,0-2-0.8-2-2.1
			v-4h-1.4v-1.3h0.4c0.8,0,1.1-0.5,1.1-1.1v-1.2h1.3L590,75.5L590,75.5z"/>
		<path class="st0" d="M600.2,80.7c-0.4,1.3-1.6,2.3-3.3,2.3c-1.9,0-3.6-1.4-3.6-3.9c0-2.3,1.6-3.8,3.5-3.8c2.2,0,3.5,1.5,3.5,3.8
			c0,0.2,0,0.4,0,0.5h-5.5c0,1.3,1,2.2,2.2,2.2s1.8-0.6,2-1.5L600.2,80.7z M598.8,78.4c0-1-0.7-1.9-2-1.9c-1.2,0-1.9,0.9-2,1.9
			H598.8z"/>
		<path class="st0" d="M613.7,79.2c0,2.2-1.5,3.9-3.7,3.9s-3.7-1.6-3.7-3.9c0-2.2,1.5-3.8,3.7-3.8S613.7,77,613.7,79.2z M612.3,79.2
			c0-1.7-1.1-2.6-2.3-2.6s-2.3,0.9-2.3,2.6s1.1,2.6,2.3,2.6S612.3,80.9,612.3,79.2z"/>
		<path class="st0" d="M620.1,77c-0.2,0-0.4,0-0.6,0c-1.2,0-2,0.6-2,2.2v3.6h-1.4v-7.3h1.4v1.3c0.5-1.1,1.4-1.4,2.2-1.4
			c0.2,0,0.4,0,0.5,0V77H620.1z"/>
		<path class="st0" d="M622.9,71.8c0.6,0,1,0.5,1,1c0,0.6-0.5,1-1,1c-0.6,0-1-0.5-1-1C621.9,72.2,622.3,71.8,622.9,71.8z
			 M622.2,82.8v-7.3h1.4v7.3H622.2z"/>
		<path class="st0" d="M627.4,82.9c0.1,1,0.9,1.8,2,1.8c1.5,0,2.2-0.8,2.2-2.4v-1c-0.3,0.7-1.1,1.2-2.2,1.2c-1.9,0-3.3-1.5-3.3-3.5
			s1.3-3.5,3.3-3.5c1.1,0,1.9,0.4,2.2,1.1v-1h1.4v6.7c0,1.8-0.9,3.6-3.6,3.6c-1.8,0-3.2-1.1-3.3-2.7L627.4,82.9z M631.6,78.9
			c0-1.4-0.8-2.3-2.1-2.3s-2.1,0.9-2.1,2.3s0.8,2.3,2.1,2.3C630.8,81.3,631.6,80.3,631.6,78.9z"/>
		<path class="st0" d="M636.5,71.8c0.6,0,1,0.5,1,1c0,0.6-0.5,1-1,1c-0.6,0-1-0.5-1-1C635.5,72.2,635.9,71.8,636.5,71.8z
			 M635.8,82.8v-7.3h1.4v7.3H635.8z"/>
		<path class="st0" d="M641.6,82.8h-1.4v-7.3h1.4v1c0.5-0.9,1.4-1.3,2.2-1.3c1.7,0,2.6,1.3,2.6,2.9v4.6H645v-4.4
			c0-1-0.4-1.8-1.7-1.8c-1.1,0-1.7,0.9-1.7,2L641.6,82.8L641.6,82.8z"/>
	</g>
</g>
<circle class="st4" cx="476.9" cy="188.9" r="21"/>
<circle class="st4" cx="393.7" cy="188.9" r="21"/>
<circle class="st5" cx="517.9" cy="270.9" r="21"/>
<path class="st6" d="M469.8,356.7H566v50h-96.2V356.7z"/>
<path class="st0" d="M504.5,387.7v-8.3l-3.6,8.3h-1.3l-3.6-8.3v8.3h-1.5v-10.6h2l3.7,8.7l3.8-8.7h2v10.6H504.5z M510.9,383.6
	l1.9-0.3c0.4-0.1,0.6-0.3,0.6-0.5c0-0.7-0.5-1.3-1.6-1.3c-1,0-1.5,0.6-1.6,1.5l-1.4-0.3c0.2-1.4,1.4-2.3,3-2.3c2.2,0,3,1.2,3,2.6
	v3.6c0,0.6,0.1,1,0.1,1.2h-1.4c0-0.2-0.1-0.5-0.1-1c-0.3,0.5-1,1.2-2.3,1.2c-1.5,0-2.4-1-2.4-2.2
	C508.7,384.5,509.7,383.8,510.9,383.6L510.9,383.6z M513.4,384.6v-0.3l-2.2,0.3c-0.6,0.1-1.1,0.4-1.1,1.1c0,0.5,0.4,1,1.2,1
	C512.5,386.8,513.4,386.2,513.4,384.6z M518.4,385.4c0.1,0.8,0.7,1.3,1.7,1.3c0.8,0,1.2-0.4,1.2-1c0-0.4-0.3-0.8-0.9-0.9l-1.2-0.3
	c-1.1-0.2-1.8-1-1.8-2c0-1.2,1.2-2.3,2.6-2.3c2,0,2.6,1.3,2.7,1.9l-1.2,0.5c-0.1-0.4-0.4-1.2-1.5-1.2c-0.7,0-1.2,0.5-1.2,1
	c0,0.4,0.3,0.8,0.8,0.9l1.2,0.3c1.3,0.3,2,1.1,2,2.1s-0.9,2.2-2.6,2.2c-2,0-2.8-1.3-2.9-2.1L518.4,385.4L518.4,385.4z M527.2,380.5
	h1.6v1.3h-1.6v3.8c0,0.7,0.3,1,1,1c0.2,0,0.4,0,0.6-0.1v1.2c-0.1,0-0.5,0.1-1,0.1c-1.2,0-2-0.8-2-2.1v-4h-1.4v-1.3h0.4
	c0.8,0,1.1-0.5,1.1-1.1v-1.2h1.3L527.2,380.5L527.2,380.5z M537.6,385.7c-0.4,1.3-1.6,2.3-3.2,2.3c-1.9,0-3.6-1.4-3.6-3.9
	c0-2.3,1.6-3.8,3.4-3.8c2.2,0,3.5,1.5,3.5,3.8v0.5h-5.4c0,1.3,1,2.2,2.2,2.2s1.8-0.6,2-1.5L537.6,385.7z M536.2,383.4
	c0-1-0.7-1.8-2-1.8c-1.2,0-1.9,0.9-2,1.8H536.2z M544.2,381.9h-0.6c-1.2,0-2,0.6-2,2.2v3.6h-1.4v-7.2h1.4v1.3
	c0.5-1.1,1.4-1.4,2.2-1.4h0.5v1.5H544.2z"/>
<line class="st7" x1="517.9" y1="313.2" x2="517.9" y2="336.7"/>
<polyline class="st7" points="507,321.9 517.9,311.1 528.7,321.9 "/>
<path class="st8" d="M130.1,358.4h276.2v50H130.1V358.4z"/>
<line class="st7" x1="268.2" y1="313.2" x2="268.2" y2="336.7"/>
<polyline class="st7" points="257.3,321.9 268.2,311.1 279,321.9 "/>
<g>
	<path class="st0" d="M152.8,388v-10.7h1.5v9.3h5.1v1.4L152.8,388L152.8,388z"/>
	<path class="st0" d="M168.2,384.4c0,2.2-1.5,3.9-3.7,3.9s-3.7-1.6-3.7-3.9c0-2.2,1.5-3.8,3.7-3.8S168.2,382.2,168.2,384.4z
		 M166.8,384.4c0-1.7-1.1-2.6-2.3-2.6s-2.3,0.9-2.3,2.6s1.1,2.6,2.3,2.6S166.8,386.1,166.8,384.4z"/>
	<path class="st0" d="M171.4,384.4c0,1.7,1,2.5,2.2,2.5c1.4,0,1.9-0.9,2-1.5l1.3,0.5c-0.3,1-1.4,2.3-3.3,2.3c-2.1,0-3.7-1.7-3.7-3.9
		c0-2.3,1.6-3.8,3.6-3.8c1.9,0,2.9,1.2,3.2,2.3l-1.3,0.5c-0.2-0.7-0.7-1.5-1.9-1.5C172.5,381.9,171.4,382.7,171.4,384.4z"/>
	<path class="st0" d="M180.8,383.9l2-0.3c0.4-0.1,0.6-0.3,0.6-0.5c0-0.7-0.5-1.3-1.6-1.3c-1,0-1.6,0.6-1.6,1.5l-1.4-0.3
		c0.2-1.4,1.4-2.4,3-2.4c2.2,0,3,1.2,3,2.7v3.6c0,0.6,0.1,1,0.1,1.2h-1.4c0-0.2-0.1-0.5-0.1-1c-0.3,0.5-1,1.2-2.3,1.2
		c-1.5,0-2.4-1-2.4-2.2C178.6,384.8,179.6,384.1,180.8,383.9z M183.3,384.9v-0.3l-2.2,0.3c-0.6,0.1-1.1,0.4-1.1,1.1
		c0,0.5,0.5,1.1,1.2,1.1C182.4,387.1,183.3,386.5,183.3,384.9z"/>
	<path class="st0" d="M187.5,388v-10.9h1.4V388H187.5z"/>
	<path class="st0" d="M203,384.4c0,2.2-1.5,3.9-3.7,3.9s-3.7-1.6-3.7-3.9c0-2.2,1.5-3.8,3.7-3.8S203,382.2,203,384.4z M201.5,384.4
		c0-1.7-1.1-2.6-2.3-2.6s-2.3,0.9-2.3,2.6s1.1,2.6,2.3,2.6S201.5,386.1,201.5,384.4z"/>
	<path class="st0" d="M209.4,382.2c-0.2,0-0.4,0-0.6,0c-1.2,0-2,0.6-2,2.2v3.6h-1.4v-7.3h1.4v1.3c0.5-1.1,1.4-1.4,2.2-1.4
		c0.2,0,0.4,0,0.5,0L209.4,382.2L209.4,382.2z"/>
	<path class="st0" d="M212.1,377c0.6,0,1,0.5,1,1c0,0.6-0.5,1-1,1c-0.6,0-1-0.5-1-1S211.6,377,212.1,377z M211.4,388v-7.3h1.4v7.3
		H211.4z"/>
	<path class="st0" d="M216.6,388.1c0.1,1,0.9,1.8,2,1.8c1.5,0,2.2-0.8,2.2-2.4v-1c-0.3,0.7-1.1,1.2-2.2,1.2c-1.9,0-3.3-1.5-3.3-3.5
		s1.3-3.5,3.3-3.5c1.1,0,1.9,0.4,2.2,1.1v-1h1.4v6.7c0,1.8-0.9,3.6-3.6,3.6c-1.8,0-3.2-1.1-3.3-2.7L216.6,388.1z M220.9,384.2
		c0-1.4-0.8-2.3-2.1-2.3s-2.1,0.9-2.1,2.3s0.8,2.3,2.1,2.3C220,386.5,220.9,385.6,220.9,384.2z"/>
	<path class="st0" d="M225.7,377c0.6,0,1,0.5,1,1c0,0.6-0.5,1-1,1c-0.6,0-1-0.5-1-1S225.2,377,225.7,377z M225,388v-7.3h1.4v7.3H225
		z"/>
	<path class="st0" d="M230.8,388h-1.4v-7.3h1.4v1c0.5-0.9,1.4-1.3,2.2-1.3c1.7,0,2.6,1.3,2.6,2.9v4.6h-1.4v-4.4c0-1-0.4-1.8-1.7-1.8
		c-1.1,0-1.7,0.9-1.7,2L230.8,388L230.8,388z"/>
	<path class="st0" d="M238.6,388h-1.4l5.2-10.7h1.4L238.6,388z"/>
	<path class="st0" d="M244.6,388v-7.3h1.4v1c0.5-0.8,1.4-1.2,2.2-1.2c0.9,0,1.8,0.4,2.2,1.4c0.6-1,1.5-1.4,2.4-1.4
		c1.3,0,2.5,0.9,2.5,2.8v4.7h-1.4v-4.6c0-0.9-0.5-1.7-1.5-1.7s-1.7,0.8-1.7,1.8v4.4h-1.4v-4.6c0-0.9-0.5-1.7-1.5-1.7
		s-1.7,0.8-1.7,1.8v4.4h-1.5V388z"/>
	<path class="st0" d="M259.8,383.9l2-0.3c0.4-0.1,0.6-0.3,0.6-0.5c0-0.7-0.5-1.3-1.6-1.3c-1,0-1.6,0.6-1.6,1.5l-1.4-0.3
		c0.2-1.4,1.4-2.4,3-2.4c2.2,0,3,1.2,3,2.7v3.6c0,0.6,0.1,1,0.1,1.2h-1.4c0-0.2-0.1-0.5-0.1-1c-0.3,0.5-1,1.2-2.3,1.2
		c-1.5,0-2.4-1-2.4-2.2C257.6,384.8,258.6,384.1,259.8,383.9z M262.3,384.9v-0.3l-2.2,0.3c-0.6,0.1-1.1,0.4-1.1,1.1
		c0,0.5,0.5,1.1,1.2,1.1C261.4,387.1,262.3,386.5,262.3,384.9z"/>
	<path class="st0" d="M267.1,385.7c0.1,0.8,0.7,1.4,1.7,1.4c0.8,0,1.2-0.5,1.2-1s-0.3-0.8-0.9-0.9l-1.2-0.3c-1.1-0.2-1.8-1-1.8-2
		c0-1.2,1.2-2.3,2.6-2.3c2,0,2.6,1.3,2.8,1.9l-1.3,0.5c-0.1-0.4-0.4-1.2-1.5-1.2c-0.7,0-1.2,0.5-1.2,1c0,0.4,0.3,0.8,0.8,0.9
		l1.2,0.3c1.3,0.3,2,1.1,2,2.2c0,1-0.9,2.2-2.7,2.2c-2,0-2.8-1.3-3-2.1L267.1,385.7z"/>
	<path class="st0" d="M275.8,380.8h1.6v1.3h-1.6v3.8c0,0.7,0.3,1,1,1c0.2,0,0.4,0,0.6-0.1v1.2c-0.1,0-0.5,0.1-1,0.1
		c-1.2,0-2-0.8-2-2.1v-4H273v-1.3h0.4c0.8,0,1.1-0.5,1.1-1.1v-1.2h1.3V380.8z"/>
	<path class="st0" d="M286,386c-0.4,1.3-1.6,2.3-3.3,2.3c-1.9,0-3.6-1.4-3.6-3.9c0-2.3,1.6-3.8,3.5-3.8c2.2,0,3.5,1.5,3.5,3.8
		c0,0.2,0,0.4,0,0.5h-5.5c0,1.3,1,2.2,2.2,2.2s1.8-0.6,2-1.5L286,386z M284.6,383.7c0-1-0.7-1.9-2-1.9c-1.2,0-1.9,0.9-2,1.9H284.6z"
		/>
	<path class="st0" d="M292.4,382.2c-0.2,0-0.4,0-0.6,0c-1.2,0-2,0.6-2,2.2v3.6h-1.4v-7.3h1.4v1.3c0.5-1.1,1.4-1.4,2.2-1.4
		c0.2,0,0.4,0,0.5,0v1.6H292.4z"/>
	<path class="st0" d="M299.5,377c0.6,0,1,0.5,1,1c0,0.6-0.5,1-1,1c-0.6,0-1-0.5-1-1S298.9,377,299.5,377z M298.8,388v-7.3h1.4v7.3
		H298.8z"/>
	<path class="st0" d="M304.6,388h-1.4v-7.3h1.4v1c0.5-0.9,1.4-1.3,2.2-1.3c1.7,0,2.6,1.3,2.6,2.9v4.6H308v-4.4c0-1-0.4-1.8-1.7-1.8
		c-1.1,0-1.7,0.9-1.7,2V388z"/>
	<path class="st0" d="M316.7,391.1l1.8-3.8l-3.1-6.5h1.6l2.3,5l2.2-5h1.5l-4.7,10.3H316.7z"/>
	<path class="st0" d="M331.4,384.4c0,2.2-1.5,3.9-3.7,3.9s-3.7-1.6-3.7-3.9c0-2.2,1.5-3.8,3.7-3.8S331.4,382.2,331.4,384.4z
		 M330,384.4c0-1.7-1.1-2.6-2.3-2.6s-2.3,0.9-2.3,2.6s1.1,2.6,2.3,2.6S330,386.1,330,384.4z"/>
	<path class="st0" d="M336.3,388.3c-1.7,0-2.7-1.3-2.7-2.9v-4.6h1.4v4.4c0,1,0.5,1.9,1.6,1.9s1.7-0.8,1.7-1.9v-4.4h1.4v5.9
		c0,0.6,0,1.1,0.1,1.3h-1.4c0-0.2-0.1-0.6-0.1-0.9C338.1,387.9,337.2,388.3,336.3,388.3z"/>
	<path class="st0" d="M346.8,382.2c-0.2,0-0.4,0-0.6,0c-1.2,0-2,0.6-2,2.2v3.6h-1.4v-7.3h1.4v1.3c0.5-1.1,1.4-1.4,2.2-1.4
		c0.2,0,0.4,0,0.5,0v1.6H346.8z"/>
	<path class="st0" d="M357.2,382.2c-0.2,0-0.4,0-0.6,0c-1.2,0-2,0.6-2,2.2v3.6h-1.4v-7.3h1.4v1.3c0.5-1.1,1.4-1.4,2.2-1.4
		c0.2,0,0.4,0,0.5,0v1.6H357.2z"/>
	<path class="st0" d="M365.5,386c-0.4,1.3-1.6,2.3-3.3,2.3c-1.9,0-3.6-1.4-3.6-3.9c0-2.3,1.6-3.8,3.5-3.8c2.2,0,3.5,1.5,3.5,3.8
		c0,0.2,0,0.4,0,0.5h-5.5c0,1.3,1,2.2,2.2,2.2s1.8-0.6,2-1.5L365.5,386z M364.1,383.7c0-1-0.7-1.9-2-1.9c-1.2,0-1.9,0.9-2,1.9H364.1
		z"/>
	<path class="st0" d="M367.9,390.9v-10.1h1.4v1.1c0.4-0.7,1.3-1.3,2.4-1.3c2.2,0,3.3,1.7,3.3,3.8c0,2.2-1.3,3.8-3.4,3.8
		c-1.1,0-2-0.5-2.4-1.2v3.8h-1.3V390.9z M371.4,381.9c-1.3,0-2.2,1.1-2.2,2.5c0,1.5,0.9,2.6,2.2,2.6c1.3,0,2.1-1.1,2.1-2.6
		C373.6,382.9,372.8,381.9,371.4,381.9z"/>
	<path class="st0" d="M384.2,384.4c0,2.2-1.5,3.9-3.7,3.9s-3.7-1.6-3.7-3.9c0-2.2,1.5-3.8,3.7-3.8S384.2,382.2,384.2,384.4z
		 M382.7,384.4c0-1.7-1.1-2.6-2.3-2.6s-2.3,0.9-2.3,2.6s1.1,2.6,2.3,2.6S382.7,386.1,382.7,384.4z"/>
</g>
<circle class="st9" cx="561.6" cy="188.9" r="21"/>
<g>
	<path class="st0" d="M396.1,190.7h-4.7l-1.1,3h-1.6L393,183h1.7l4.3,10.7h-1.6L396.1,190.7z M391.9,189.3h3.7l-1.9-4.8L391.9,189.3
		z"/>
</g>
<g>
	<path class="st0" d="M477.2,183c2,0,3.2,1.2,3.2,2.9c0,1.1-0.7,2-1.6,2.3c1.2,0.3,1.9,1.4,1.9,2.6c0,1.7-1.3,2.9-3.3,2.9h-3.7V183
		H477.2z M477.1,187.7c1.2,0,1.9-0.7,1.9-1.7s-0.7-1.7-2-1.7h-1.8v3.4H477.1z M477.3,192.4c1.2,0,2-0.7,2-1.7s-0.6-1.7-1.9-1.7h-2.1
		v3.5h2V192.4z"/>
</g>
<g>
	<path class="st0" d="M556.7,188.4c0-3.6,2.7-5.6,5.3-5.6c2.4,0,4.2,1.3,4.7,3.4l-1.4,0.5c-0.4-1.6-1.6-2.5-3.3-2.5
		c-1.9,0-3.8,1.4-3.8,4.2s1.9,4.2,3.8,4.2c1.8,0,3-1.1,3.4-2.6l1.3,0.5c-0.6,2-2.3,3.4-4.7,3.4C559.2,193.9,556.7,191.9,556.7,188.4
		z"/>
</g>
<g>
	<path class="st0" d="M264.1,275.7V265h3.7c2.7,0,5.1,1.9,5.1,5.4s-2.4,5.3-5.1,5.3L264.1,275.7L264.1,275.7z M267.7,274.4
		c2,0,3.6-1.3,3.6-4s-1.6-4.1-3.6-4.1h-2.2v8.1H267.7z"/>
</g>
<g>
	<path class="st0" d="M348.3,275.7V265h6.5v1.4h-5v3.3h4.6v1.4h-4.6v3.3h5v1.4L348.3,275.7L348.3,275.7z"/>
</g>
<g>
	<path class="st0" d="M431.8,275.7V265h6.5v1.4h-5v3.4h4.6v1.4h-4.6v4.5L431.8,275.7L431.8,275.7z"/>
</g>
<g>
	<path class="st0" d="M521.7,275.8l-0.1-1.5c-0.5,0.8-1.6,1.7-3.4,1.7c-2.7,0-5.2-2-5.2-5.6s2.7-5.6,5.3-5.6c2.3,0,4.1,1.3,4.7,3.2
		l-1.3,0.6c-0.5-1.5-1.7-2.4-3.4-2.4c-1.9,0-3.8,1.4-3.8,4.2c0,2.8,1.8,4.2,3.7,4.2c2.4,0,3.2-1.7,3.3-2.8h-3.7v-1.3h5.1v5.2
		L521.7,275.8L521.7,275.8z"/>
</g>
</svg>
